#!OML:ASF I:\Actors\actors\Patient Classification 2\Patient 1\Session 1\actor1.ASF
:FULLY-SPECIFIED
:DEGREES
646
root -0.565596 18.5567 5.72926 -7.10016 -1.21853 -2.8997
lowerback 3.7117 1.47655 -0.535281
upperback 0.389103 1.96217 0.854834
thorax -1.72825 0.986293 1.07513
lowerneck -9.1493 -7.5187 -5.72014
upperneck 33.373 -12.0306 6.32397
head 13.5452 -5.26038 1.73212
rclavicle -1.10325e-014 -9.93923e-015
rhumerus -48.7381 5.64803 -88.6022
rradius 74.4109
rwrist -15.6348
rhand -13.5286 -55.9545
rfingers 7.12502
rthumb 12.5836 -85.5555
lclavicle -1.10325e-014 -9.93923e-015
lhumerus -43.967 3.6398 88.3413
lradius 47.2652
lwrist 5.77739
lhand -8.88035 -23.7406
lfingers 7.12502
lthumb 17.0616 5.53019
rfemur 16.5247 4.30433 17.8489
rtibia 1.43125e-014
rfoot -19.9798 -12.6638
rtoes -6.23558
lfemur 1.98317 -6.88255 -13.4124
ltibia 24.3335
lfoot -22.3604 10.9497
ltoes -56.9942
647
root -0.568545 18.5556 5.72756 -7.13875 -0.885867 -2.86162
lowerback 3.67803 1.4506 -0.502343
upperback 0.451262 1.92871 0.85724
thorax -1.64383 0.96887 1.06283
lowerneck -9.07575 -7.47275 -5.65041
upperneck 32.7794 -11.9741 6.50343
head 13.2736 -5.21949 1.80077
rclavicle -3.68746e-014 -1.27222e-014
rhumerus -49.1205 5.72753 -88.5336
rradius 76.1676
rwrist -18.8279
rhand -12.7257 -56.294
rfingers 7.12502
rthumb 13.3576 -85.8458
lclavicle -3.68746e-014 -1.27222e-014
lhumerus -43.7167 3.2554 88.4696
lradius 47.4683
lwrist 6.04395
lhand -8.78181 -24.3054
lfingers 7.12502
lthumb 17.1565 4.95719
rfemur 16.6158 3.98461 17.7587
rtibia 3.18055e-015
rfoot -19.964 -12.5783
rtoes -6.28341
lfemur 1.91097 -6.96278 -13.4349
ltibia 24.3745
lfoot -22.2808 10.7335
ltoes -56.9815
648
root -0.572516 18.5551 5.72579 -7.1652 -0.503822 -2.87254
lowerback 3.68321 1.39162 -0.369517
upperback 0.495002 1.85455 0.821999
thorax -1.59476 0.9306 0.95671
lowerneck -8.98845 -7.37059 -5.46533
upperneck 32.07 -11.8372 6.65558
head 12.9366 -5.13691 1.85109
rclavicle -1.45113e-014 -1.05356e-014
rhumerus -49.6358 5.83758 -88.6786
rradius 78.258
rwrist -21.7252
rhand -11.7665 -56.1777
rfingers 7.12502
rthumb 14.282 -85.6665
lclavicle -1.45113e-014 -1.05356e-014
lhumerus -43.5403 2.65364 88.7377
lradius 48.3888
lwrist 6.77773
lhand -8.95952 -22.6048
lfingers 7.12502
lthumb 16.9854 6.67251
rfemur 16.6981 3.60805 17.7159
rtibia 3.18055e-014
rfoot -19.9612 -12.4864
rtoes -6.28206
lfemur 1.80518 -7.14545 -13.4199
ltibia 24.4263
lfoot -22.217 10.5667
ltoes -56.9996
649
root -0.57643 18.5558 5.72519 -7.1931 -0.119038 -2.90606
lowerback 3.69777 1.28891 -0.229314
upperback 0.530683 1.72277 0.806755
thorax -1.55906 0.863728 0.869464
lowerneck -8.82004 -7.17982 -5.18263
upperneck 31.1851 -11.5492 6.73312
head 12.4912 -4.99298 1.88052
rclavicle 1.65985e-014 -2.5842e-015
rhumerus -50.2553 6.01032 -88.9441
rradius 80.6747
rwrist -24.236
rhand -10.8362 -55.8063
rfingers 7.12502
rthumb 15.1783 -85.2297
lclavicle 1.65985e-014 -2.5842e-015
lhumerus -43.4602 2.30558 88.8458
lradius 49.1917
lwrist 7.51644
lhand -9.20787 -21.8308
lfingers 7.12502
lthumb 16.7463 7.46697
rfemur 16.7773 3.22549 17.697
rtibia -2.70347e-014
rfoot -19.9324 -12.4263
rtoes -6.12367
lfemur 1.69768 -7.28827 -13.371
ltibia 24.4817
lfoot -22.1241 10.385
ltoes -57.0837
650
root -0.578287 18.5563 5.72381 -7.24574 0.24546 -2.89561
lowerback 3.77764 1.17461 -0.101219
upperback 0.540525 1.57541 0.790635
thorax -1.58718 0.789356 0.78703
lowerneck -8.60254 -6.90799 -4.80746
upperneck 30.2049 -11.1186 6.69956
head 11.9833 -4.79226 1.87309
rclavicle 1.92573e-014 8.34896e-015
rhumerus -51.0525 6.2436 -89.3297
rradius 83.4978
rwrist -26.3056
rhand -10.5269 -56.024
rfingers 7.12502
rthumb 15.4762 -85.4245
lclavicle 1.92573e-014 8.34896e-015
lhumerus -43.5513 1.9911 88.9131
lradius 49.9775
lwrist 8.34345
lhand -9.63653 -21.6743
lfingers 7.12502
lthumb 16.3336 7.6579
rfemur 16.8729 2.87276 17.6247
rtibia 1.59028e-014
rfoot -19.9135 -12.383
rtoes -5.83744
lfemur 1.62167 -7.36024 -13.3699
ltibia 24.5359
lfoot -21.9729 10.2268
ltoes -57.2225
651
root -0.581123 18.5561 5.72079 -7.31316 0.536526 -2.87679
lowerback 3.89314 1.07765 0.0541457
upperback 0.544863 1.4525 0.761916
thorax -1.64092 0.727 0.674601
lowerneck -8.35327 -6.57944 -4.4021
upperneck 29.1485 -10.597 6.63049
head 11.4437 -4.55375 1.85861
rclavicle -7.0817e-015 2.98177e-015
rhumerus -51.8076 6.54811 -89.8326
rradius 86.5463
rwrist -27.9004
rhand -10.5483 -56.6611
rfingers 7.12502
rthumb 15.4556 -86.0632
lclavicle -7.0817e-015 2.98177e-015
lhumerus -43.6986 1.75069 88.9216
lradius 50.737
lwrist 9.11682
lhand -9.89505 -21.634
lfingers 7.12502
lthumb 16.0847 7.7184
rfemur 16.9681 2.59307 17.5592
rtibia 6.52014e-014
rfoot -19.9639 -12.3275
rtoes -5.36348
lfemur 1.57099 -7.32618 -13.354
ltibia 24.5787
lfoot -21.7901 9.99916
ltoes -57.3672
652
root -0.587066 18.5552 5.71734 -7.38249 0.739499 -2.8909
lowerback 3.97782 0.995044 0.17191
upperback 0.567879 1.34806 0.781997
thorax -1.66122 0.67415 0.633402
lowerneck -8.12573 -6.21334 -3.8892
upperneck 28.0798 -9.99014 6.37269
head 10.8978 -4.28527 1.76551
rclavicle 7.52897e-015 4.17448e-015
rhumerus -52.1754 7.02816 -90.2993
rradius 89.4511
rwrist -29.1508
rhand -10.3609 -56.8869
rfingers 7.12502
rthumb 15.6361 -86.275
lclavicle 7.52897e-015 4.17448e-015
lhumerus -43.8273 1.72016 88.9051
lradius 51.4107
lwrist 9.68796
lhand -10.0435 -21.6554
lfingers 7.12502
lthumb 15.9418 7.70848
rfemur 17.0514 2.39063 17.5607
rtibia -2.22639e-014
rfoot -19.9991 -12.2942
rtoes -4.95412
lfemur 1.55461 -7.26549 -13.2836
ltibia 24.5986
lfoot -21.6851 9.73156
ltoes -57.4095
653
root -0.59221 18.555 5.71208 -7.43106 0.789742 -2.90014
lowerback 4.06439 0.933408 0.265176
upperback 0.575731 1.27159 0.841507
thorax -1.70016 0.635526 0.644842
lowerneck -7.99272 -5.81776 -3.35068
upperneck 27.1698 -9.34113 6.02093
head 10.4397 -3.99739 1.63535
rclavicle 8.21229e-015 2.26615e-014
rhumerus -51.9628 7.80655 -90.7013
rradius 91.9602
rwrist -30.5053
rhand -9.94222 -56.815
rfingers 7.12502
rthumb 16.0393 -86.1711
lclavicle 8.21229e-015 2.26615e-014
lhumerus -43.9982 1.7675 88.9077
lradius 51.9993
lwrist 10.1648
lhand -10.2219 -21.6659
lfingers 7.12502
lthumb 15.77 7.71164
rfemur 17.088 2.33654 17.5855
rtibia -1.27222e-014
rfoot -19.927 -12.3718
rtoes -5.20105
lfemur 1.58457 -7.33023 -13.2693
ltibia 24.5905
lfoot -21.7063 9.7291
ltoes -57.367
654
root -0.594893 18.5563 5.70375 -7.43654 0.586717 -2.91349
lowerback 4.13955 0.911063 0.431212
upperback 0.554866 1.25127 0.9077
thorax -1.76137 0.624462 0.619318
lowerneck -7.87108 -5.39674 -2.84712
upperneck 26.3696 -8.65174 5.60841
head 10.0365 -3.69657 1.49275
rclavicle -1.74682e-014 2.38542e-015
rhumerus -51.0966 8.95955 -91.1031
rradius 93.9827
rwrist -32.5025
rhand -10.5116 -56.0097
rfingers 7.12502
rthumb 15.4909 -85.4091
lclavicle -1.74682e-014 2.38542e-015
lhumerus -44.1953 1.86274 88.8687
lradius 52.4691
lwrist 10.5827
lhand -10.3336 -21.5733
lfingers 7.12502
lthumb 15.6624 7.81278
rfemur 17.0258 2.52977 17.6483
rtibia 4.45278e-014
rfoot -19.7902 -12.5489
rtoes -5.98487
lfemur 1.6468 -7.41823 -13.2898
ltibia 24.5492
lfoot -21.8001 9.97666
ltoes -57.3008
